<svg width="160" height="160" viewBox="0 0 160 160" fill="none" xmlns="http://www.w3.org/2000/svg">
<mask id="path-1-inside-1_222_147" fill="white">
<path d="M70.3432 153.945C69.9551 156.917 67.226 159.03 64.2873 158.442C55.7861 156.739 47.606 153.663 40.0721 149.324C30.9684 144.08 22.9866 137.095 16.5825 128.767C10.1783 120.439 5.47717 110.931 2.74753 100.786C0.0178772 90.641 -0.686848 80.0578 0.673586 69.6405C2.03402 59.2232 5.43297 49.1758 10.6764 40.0721C15.9198 30.9684 22.9049 22.9866 31.2331 16.5825C39.5612 10.1783 49.0691 5.47717 59.2141 2.74752C67.6096 0.488579 76.3053 -0.383589 84.9587 0.153825C87.9501 0.339599 90.0449 3.08275 89.6568 6.0546V6.0546C89.2687 9.02646 86.5441 11.0986 83.551 10.9447C76.3145 10.5725 69.0529 11.3397 62.034 13.2282C53.2654 15.5875 45.0474 19.6508 37.8492 25.1862C30.6509 30.7215 24.6134 37.6204 20.0814 45.489C15.5493 53.3577 12.6115 62.0419 11.4356 71.0459C10.2598 80.0499 10.8689 89.1974 13.2282 97.966C15.5875 106.735 19.6508 114.953 25.1862 122.151C30.7215 129.349 37.6204 135.387 45.4891 139.919C51.7875 143.546 58.6086 146.153 65.6979 147.651C68.6302 148.271 70.7313 150.974 70.3432 153.945V153.945Z"/>
</mask>
<path d="M70.3432 153.945C69.9551 156.917 67.226 159.03 64.2873 158.442C55.7861 156.739 47.606 153.663 40.0721 149.324C30.9684 144.08 22.9866 137.095 16.5825 128.767C10.1783 120.439 5.47717 110.931 2.74753 100.786C0.0178772 90.641 -0.686848 80.0578 0.673586 69.6405C2.03402 59.2232 5.43297 49.1758 10.6764 40.0721C15.9198 30.9684 22.9049 22.9866 31.2331 16.5825C39.5612 10.1783 49.0691 5.47717 59.2141 2.74752C67.6096 0.488579 76.3053 -0.383589 84.9587 0.153825C87.9501 0.339599 90.0449 3.08275 89.6568 6.0546V6.0546C89.2687 9.02646 86.5441 11.0986 83.551 10.9447C76.3145 10.5725 69.0529 11.3397 62.034 13.2282C53.2654 15.5875 45.0474 19.6508 37.8492 25.1862C30.6509 30.7215 24.6134 37.6204 20.0814 45.489C15.5493 53.3577 12.6115 62.0419 11.4356 71.0459C10.2598 80.0499 10.8689 89.1974 13.2282 97.966C15.5875 106.735 19.6508 114.953 25.1862 122.151C30.7215 129.349 37.6204 135.387 45.4891 139.919C51.7875 143.546 58.6086 146.153 65.6979 147.651C68.6302 148.271 70.7313 150.974 70.3432 153.945V153.945Z" stroke="url(#paint0_linear_222_147)" stroke-width="16" mask="url(#path-1-inside-1_222_147)"/>
<defs>
<linearGradient id="paint0_linear_222_147" x1="80" y1="0" x2="80" y2="160" gradientUnits="userSpaceOnUse">
<stop stop-color="#0366D6"/>
<stop offset="1" stop-color="#2BFFEA" stop-opacity="0"/>
</linearGradient>
</defs>
</svg>
