<svg width="46" height="46" viewBox="0 0 46 46" fill="none" xmlns="http://www.w3.org/2000/svg">
<path fill-rule="evenodd" clip-rule="evenodd" d="M46 23C46 35.7025 35.7025 46 23 46C10.2975 46 0 35.7025 0 23C0 10.2975 10.2975 0 23 0C35.7025 0 46 10.2975 46 23ZM35 27.5C35 33.8513 29.6274 39 23 39C16.3726 39 11 33.8513 11 27.5C11 24.9517 11.8649 22.597 13.3288 20.6907C13.2958 20.6186 13.2702 20.5412 13.253 20.4589C13.2314 20.3551 13.2112 20.2511 13.1923 20.1469C13.1183 19.7382 13.0657 19.3261 13.0345 18.9125C12.9172 17.3632 13.0991 15.7935 13.5796 14.3096C13.5954 14.2608 13.6115 14.2121 13.6279 14.1635C14.4279 11.799 15.9416 9.81108 17.9125 8.52994C17.9723 8.49109 18.0325 8.45288 18.0931 8.41534C20.1521 7.13983 22.5553 6.70763 24.8764 7.19539C24.9071 7.20184 24.9378 7.20845 24.9684 7.21521C26.4256 7.53702 27.7888 8.20955 28.9659 9.17195C29.2329 9.3903 29.4904 9.62358 29.7372 9.87108C29.8407 9.97495 29.9424 10.0813 30.0422 10.1901C30.4833 10.6715 30.4004 11.4119 29.9127 11.8461C29.4258 12.2795 28.7088 12.2574 28.1766 11.9C28.1007 11.849 28.0285 11.7911 27.9613 11.7268C27.7629 11.5369 27.5559 11.3589 27.3412 11.1932C26.4718 10.5223 25.477 10.0553 24.4184 9.83289C24.3876 9.82643 24.3569 9.82018 24.3261 9.81415C22.6689 9.48927 20.9614 9.78246 19.4743 10.6451C19.432 10.6696 19.3899 10.6945 19.348 10.72C19.3289 10.7316 19.3099 10.7433 19.2909 10.755C17.7756 11.6937 16.6022 13.1775 15.9663 14.9546C15.9591 14.9748 15.9519 14.9951 15.9449 15.0154C15.935 15.0435 15.9253 15.0717 15.9157 15.1C15.5398 16.2112 15.3871 17.3891 15.4579 18.5548C17.5187 16.957 20.1428 16 23 16C29.6274 16 35 21.1487 35 27.5ZM25 28.2361V32H21V28.2361C20.3863 27.6868 20 26.8885 20 26C20 24.3431 21.3431 23 23 23C24.6569 23 26 24.3431 26 26C26 26.8885 25.6137 27.6868 25 28.2361Z" fill="currentColor"/>
</svg>
