<svg width="46" height="46" viewBox="0 0 46 46" fill="none" xmlns="http://www.w3.org/2000/svg">
<path fill-rule="evenodd" clip-rule="evenodd" d="M46 23C46 35.7025 35.7025 46 23 46C10.2975 46 0 35.7025 0 23C0 10.2975 10.2975 0 23 0C35.7025 0 46 10.2975 46 23ZM30 13C30 16.866 26.866 20 23 20C19.134 20 16 16.866 16 13C16 9.13401 19.134 6 23 6C26.866 6 30 9.13401 30 13ZM36.8766 32.3871C37.2868 33.2588 36.8533 34.2697 35.9754 34.6664C34.9971 35.1085 33.859 34.6164 33.3555 33.6682C32.4549 31.9723 31.2282 30.51 29.7556 29.3922C27.7794 27.8921 25.4491 27.0799 23.0594 27.0583C20.6697 27.0367 18.3279 27.8067 16.3302 29.2709C14.8442 30.36 13.5982 31.7969 12.6736 33.4725C12.1535 34.4152 11.0038 34.8904 10.0305 34.43C9.16028 34.0184 8.74359 33.0016 9.1666 32.1369C10.3994 29.6166 12.1718 27.4644 14.3352 25.8787C16.9339 23.9741 19.9802 22.9725 23.0888 23.0006C26.1974 23.0287 29.2288 24.0852 31.7995 26.0366C33.9396 27.6611 35.6805 29.845 36.8766 32.3871Z" fill="currentColor"/>
</svg>
